<svg xmlns="http://www.w3.org/2000/svg" viewBox="0 0 433.43 896"><defs><style>.cls-1{fill:none;stroke:#fff;stroke-linecap:round;stroke-linejoin:round;stroke-width:8px;}.cls-2{fill:#dd1f3b;}</style></defs><title>Asset 2</title><g id="Layer_2" data-name="Layer 2"><g id="Layer_1-2" data-name="Layer 1"><path class="cls-1" d="M107.13,892S80.94,758.94,77.79,748.47C48.34,650.3-1.27,624.38,4.46,553.59c2.73-33.83,16.36-71.23,25.14-95.34,0,0,9.37-25.71,31.43-61.81,16.48-27,25.51-35.17,35.62-35.62,11.49-.52,29.33,8.74,28.29,8.38h0"></path><path class="cls-1" d="M99.8,444.63c2.09-2.09,14.66-31.43,23-62.86s26.2-59.72,67.06-52.38"></path><path class="cls-1" d="M196.18,421.58a566.38,566.38,0,0,1-2.09-66c1-37.81,5.12-46.75,10.48-53.43,13.73-17.14,36.57-20.52,39.81-21a65.51,65.51,0,0,1,23.05,1.05"></path><path class="cls-1" d="M317.72,417.39s-18.86-5.23-25.15-38.76-18.86-81.72-20.95-88-11.53-20.95-17.81-44-6.29-38.77,7.33-54.48,63.91,33.53,71.24,46.1,26.2,35.62,31.43,49.24,35.63,129.91,38.77,138.3,11.52,18.85,12.57,47.14S412,523.21,375.34,563s-78.58,93.25-80.67,110,37.71,140.39,37.71,140.39"></path><path class="cls-1" d="M332.38,238.24s44-23.05,82.77-8.38-12.57,41.9-23,51.33-22.24,26.16-22.24,26.16"></path><path class="cls-1" d="M50.55,555.69a910.2,910.2,0,0,0,135.16,10.48c48.24.08,73.33-3.87,90.1-7.34a364.47,364.47,0,0,0,65-19.9"></path><path class="cls-2" d="M401.85,32.56c-.05-3.25-.24-14.91-9.24-23.78s-20.95-9-25.26-8.7c-15.78,1-24.84,12.66-26.23,14.51-1.4-1.85-10.46-13.47-26.23-14.51-4.31-.29-16.19-.25-25.27,8.7s-9.18,20.53-9.23,23.78C280.1,50.12,292.56,63,299.55,70.19c4.1,4.24,10,8.59,21.72,17.28,8.17,6,15.08,10.82,19.85,14,4.76-3.21,11.67-8,19.84-14,11.75-8.69,17.63-13,21.73-17.28C389.67,63,402.13,50.12,401.85,32.56Z"></path></g></g></svg>